<svg width="100" height="100" viewBox="0 0 100 100" fill="none" xmlns="http://www.w3.org/2000/svg">
<path d="M33.3327 50.0311C33.3165 40.8278 40.7653 33.3514 49.9669 33.3354C59.1702 33.3174 66.6479 40.7629 66.6659 49.968C66.6836 59.1731 59.2348 66.6477 50.0299 66.6657C40.8284 66.6833 33.3504 59.2362 33.3327 50.0311ZM24.3272 50.0491C24.3547 64.2292 35.8713 75.6989 50.0479 75.6712C64.226 75.6438 75.7022 64.1303 75.6747 49.9502C75.6471 35.7751 64.129 24.2987 49.9491 24.3264C35.7723 24.354 24.2997 35.8721 24.3272 50.0491ZM70.6366 23.2733C70.643 26.5846 73.3352 29.2659 76.6467 29.2594C79.9594 29.2528 82.6407 26.562 82.6358 23.2506C82.6293 19.9393 79.937 17.2565 76.6241 17.2631C73.3112 17.2696 70.6301 19.962 70.6366 23.2733ZM29.8756 90.7342C25.001 90.5221 22.354 89.712 20.5899 89.0333C18.2538 88.1293 16.5868 87.0456 14.8323 85.3042C13.0811 83.5559 11.994 81.8938 11.0819 79.5626C10.3967 77.7983 9.57212 75.1545 9.34361 70.2799C9.09576 65.0098 9.03911 63.4288 9.0149 50.0782C8.98892 36.7309 9.03755 35.1497 9.26763 29.8749C9.47642 25.0036 10.2915 22.353 10.9686 20.5905C11.8725 18.2512 12.9532 16.5874 14.6979 14.8331C16.4458 13.0786 18.1079 11.9948 20.4407 11.0827C22.2034 10.394 24.8471 9.57583 29.7202 9.34439C34.9932 9.09478 36.5727 9.04146 49.92 9.01548C63.2702 8.9895 64.8512 9.03657 70.1262 9.26821C74.9973 9.48032 77.6477 10.2872 79.4088 10.9692C81.7463 11.8731 83.4133 12.9506 85.1663 14.6985C86.919 16.4465 88.0061 18.1053 88.9182 20.4432C89.6065 22.2008 90.4249 24.8479 90.6549 29.7194C90.9059 34.9924 90.9627 36.5737 90.987 49.921C91.0127 63.2715 90.9641 64.8528 90.7327 70.1245C90.5204 74.9989 89.712 77.6479 89.0317 79.4135C88.1276 81.7481 87.0471 83.4151 85.3006 85.1696C83.5544 86.9174 81.8922 88.0077 79.5579 88.9198C77.7983 89.6067 75.1514 90.4264 70.2817 90.6581C65.0086 90.9059 63.429 90.9628 50.077 90.987C36.7297 91.0129 35.1504 90.9628 29.8756 90.7342ZM29.2924 0.346729C23.9723 0.5979 20.3387 1.44985 17.1633 2.69419C13.8764 3.97564 11.0901 5.69282 8.31841 8.47603C5.54322 11.2608 3.83892 14.052 2.56724 17.3422C1.33619 20.5256 0.501811 24.161 0.26685 29.4844C0.0336468 34.8176 -0.0198688 36.5186 0.00610777 50.096C0.0320843 63.6717 0.0918499 65.376 0.346147 70.7108C0.600444 76.0294 1.44947 79.6614 2.69361 82.8381C3.97662 86.1253 5.69224 88.9102 8.47701 91.6836C11.2602 94.4571 14.0532 96.1598 17.345 97.4333C20.5251 98.6626 24.1618 99.5003 29.4836 99.7335C34.8167 99.9684 36.5192 100.02 50.0932 99.9944C63.6737 99.9684 65.3764 99.9085 70.7094 99.6557C76.0295 99.4014 79.6598 98.5495 82.8383 97.3083C86.1252 96.0221 88.9116 94.3096 91.6836 91.5249C94.4553 88.7415 96.1596 85.9487 97.4313 82.6569C98.6626 79.4768 99.5001 75.8397 99.7315 70.5213C99.9649 65.1848 100.02 63.4805 99.994 49.9047C99.968 36.3274 99.9067 34.6264 99.654 29.295C99.4012 23.9715 98.5491 20.3411 97.3065 17.1625C96.0219 13.8756 94.3081 11.0922 91.5249 8.31724C88.7417 5.54536 85.9487 3.83774 82.6569 2.56939C79.4752 1.33813 75.8399 0.499072 70.5182 0.268994C65.185 0.0324707 63.4825 -0.0192871 49.9036 0.00649416C36.328 0.0324707 34.6254 0.0906739 29.2924 0.346729Z" fill="white"/>
</svg>
